<svg xmlns="http://www.w3.org/2000/svg">
    <symbol id="candy" viewBox="0 0 50 50" width="50" height="50">
        <g><path d="M17.5,29.9c1.1,2.1,3.4,3.7,7.5,3.7c4.2,0,6.4-1.6,7.5-3.7c2.6,1.9,8.9,6.4,12.4,6.4c0.7,0,1.2-0.6,1.2-1.2V15   c0-0.7-0.6-1.2-1.2-1.2c-4.2,0-10,4.4-12.4,6.4c-1.1-2.1-3.4-3.7-7.5-3.7c-4.2,0-6.4,1.6-7.5,3.7c-2.6-1.9-8.9-6.4-12.4-6.4   c-0.7,0-1.2,0.6-1.2,1.2v20c0,0.7,0.6,1.2,1.2,1.2C9.3,36.3,15.1,31.9,17.5,29.9z M43.6,16.4v17.1c-2.8-0.9-7.4-4-10.3-6.2   c0.1-0.6,0.2-1.1,0.2-1.7c1.8-0.6,4.2-1,5.1-0.4c0.1,0.1,0.4,0.3,0.4,1c0,0.7,0.6,1.2,1.2,1.2s1.2-0.6,1.2-1.2   c0-1.7-0.8-2.6-1.5-3.1c-1.8-1.2-4.7-0.7-6.6-0.1c0-0.2,0-0.3-0.1-0.5C35.4,20.9,40.2,17.2,43.6,16.4z M25,18.9   c4.3,0,6.1,1.8,6.1,6.1s-1.8,6.1-6.1,6.1s-6.1-1.8-6.1-6.1S20.7,18.9,25,18.9z M6.4,16.5c2.8,0.9,7.4,4,10.3,6.2   c-0.1,0.6-0.2,1.1-0.2,1.7c-1.8,0.6-4.2,1-5.1,0.4c-0.1-0.1-0.4-0.3-0.4-1c0-0.7-0.6-1.2-1.2-1.2S8.4,23,8.4,23.7   c0,1.7,0.8,2.6,1.5,3.1c0.8,0.5,1.8,0.7,2.8,0.7c1.3,0,2.7-0.3,3.8-0.6c0,0.2,0,0.3,0.1,0.5c-2,1.8-6.8,5.4-10.3,6.2V16.5z"/><path d="M27.7,26.2c0.9,0,1.6-0.7,1.6-1.6c0-0.9-0.7-1.6-1.6-1.6c-0.9,0-1.6,0.7-1.6,1.6C26.1,25.5,26.8,26.2,27.7,26.2z"/><path d="M23,23.6C23,23.6,23,23.6,23,23.6c0.9,0,1.6-0.7,1.6-1.6c0-0.9-0.7-1.6-1.6-1.6c-0.9,0-1.6,0.7-1.6,1.6   C21.4,22.9,22.1,23.6,23,23.6z"/><path d="M22.9,29.5L22.9,29.5C23,29.5,23,29.5,22.9,29.5c0.9,0,1.6-0.7,1.6-1.6c0-0.9-0.7-1.6-1.6-1.6s-1.6,0.7-1.6,1.6   c0,0.4,0.2,0.8,0.5,1.1C22.1,29.3,22.5,29.5,22.9,29.5z"/></g>
    </symbol>

    <symbol id="carrot" viewBox="0 0 50 50" width="50" height="50">
        <path d="M46,13.5l-10.5,2.8L43.8,8c0.5-0.5,0.5-1.3,0-1.8c-0.5-0.5-1.3-0.5-1.8,0l-8.3,8.3L36.5,4c0.2-0.7-0.2-1.4-0.9-1.5  c-0.7-0.2-1.4,0.2-1.5,0.9l-3.5,13.1c-3.5-2.2-7.9-1-12.5,3.8c0,0,0,0,0,0c0,0,0,0,0,0c0,0,0,0,0,0C9.9,28.7,2.9,45.1,2.6,45.8  c-0.2,0.5-0.1,1,0.3,1.4c0.2,0.2,0.6,0.4,0.9,0.4c0.2,0,0.3,0,0.5-0.1c0.7-0.3,17.1-7.4,25.5-15.5c3.2-3.1,4.9-6.1,4.9-8.8  c0-1.3-0.4-2.5-1.1-3.7l13.1-3.5c0.7-0.2,1.1-0.9,0.9-1.5C47.3,13.7,46.6,13.3,46,13.5z M27.9,30.1C22,35.9,11.4,41.3,6.2,43.8  c1.9-4,5.6-11.2,9.8-17l2.5,2.5c0.2,0.2,0.6,0.4,0.9,0.4s0.6-0.1,0.9-0.4c0.5-0.5,0.5-1.3,0-1.8l-2.8-2.8c0.5-0.6,1-1.2,1.4-1.7  l2.3,2.3c0.2,0.2,0.6,0.4,0.9,0.4s0.6-0.1,0.9-0.4c0.5-0.5,0.5-1.3,0-1.8l-2.3-2.3c2.3-2.2,4.4-3.3,6.2-3.3c1.2,0,2.4,0.5,3.5,1.6  c1.1,1.1,1.6,2.2,1.6,3.5C32,25.1,30.6,27.5,27.9,30.1z"/>
    </symbol>

    <symbol id="grape" viewBox="0 0 50 50" width="50" height="50">
        <g><path d="M12,27.3c3.2,0,5.8-2.6,5.8-5.8s-2.6-5.8-5.8-5.8s-5.8,2.6-5.8,5.8S8.8,27.3,12,27.3z M12,18.3c1.8,0,3.2,1.5,3.2,3.2   s-1.5,3.2-3.2,3.2s-3.2-1.5-3.2-3.2S10.2,18.3,12,18.3z"/><path d="M12.2,32.6c0,3.2,2.6,5.8,5.8,5.8s5.8-2.6,5.8-5.8s-2.6-5.8-5.8-5.8S12.2,29.4,12.2,32.6z M18,29.3c1.8,0,3.2,1.5,3.2,3.2   s-1.5,3.2-3.2,3.2s-3.2-1.5-3.2-3.2S16.2,29.3,18,29.3z"/><path d="M25,27.3c3.2,0,5.8-2.6,5.8-5.8c0-2.7-1.9-5-4.5-5.6v-4.9c0-3.2,1.3-5.5,3.7-6.7c2-1,4-1,4-1c0.7,0,1.2-0.6,1.2-1.2   S34.7,0.8,34,0.8c-3.5,0-10.2,2.1-10.2,10.2V16c-2.6,0.6-4.5,2.9-4.5,5.6C19.2,24.8,21.8,27.3,25,27.3z M25,18.3   c1.8,0,3.2,1.5,3.2,3.2s-1.5,3.2-3.2,3.2s-3.2-1.5-3.2-3.2S23.2,18.3,25,18.3z"/><path d="M19.2,43.4c0,3.2,2.6,5.8,5.8,5.8s5.8-2.6,5.8-5.8s-2.6-5.8-5.8-5.8S19.2,40.2,19.2,43.4z M28.2,43.4   c0,1.8-1.5,3.2-3.2,3.2s-3.2-1.5-3.2-3.2s1.5-3.2,3.2-3.2S28.2,41.6,28.2,43.4z"/><path d="M37.8,32.6c0-3.2-2.6-5.8-5.8-5.8s-5.8,2.6-5.8,5.8s2.6,5.8,5.8,5.8S37.8,35.8,37.8,32.6z M28.8,32.6   c0-1.8,1.5-3.2,3.2-3.2s3.2,1.5,3.2,3.2s-1.5,3.2-3.2,3.2S28.8,34.4,28.8,32.6z"/><path d="M32.2,21.6c0,3.2,2.6,5.8,5.8,5.8s5.8-2.6,5.8-5.8s-2.6-5.8-5.8-5.8S32.2,18.4,32.2,21.6z M38,18.3c1.8,0,3.2,1.5,3.2,3.2   s-1.5,3.2-3.2,3.2s-3.2-1.5-3.2-3.2S36.2,18.3,38,18.3z"/></g>
    </symbol>

    <symbol id="candy2" viewBox="0 0 50 50" width="50" height="50">
        <g><path d="M27.2,29.5c0.7,0,1.2-0.6,1.2-1.2S27.9,27,27.2,27c-5.9,0-8.5-3.8-8.5-7.6c0-4.8,3.1-6.6,5.9-6.6c2.9,0,4.9,1.8,4.9,4.4   c0,0.9-0.2,3.7-3.3,3.7c-1.7,0-2.8-0.9-2.8-2.4c0-0.7-0.6-1.2-1.2-1.2S21,18,21,18.6c0,2.9,2.2,4.9,5.3,4.9c3.4,0,5.8-2.5,5.8-6.2   c0-4-3.2-6.9-7.4-6.9c-4.2,0-8.4,2.8-8.4,9.1C16.2,25.4,20.7,29.5,27.2,29.5z"/><path d="M23.7,33.7v10.9c0,0.7,0.6,1.2,1.2,1.2s1.2-0.6,1.2-1.2V33.7c7.6-0.6,13.6-7,13.6-14.8c0-8.2-6.7-14.8-14.8-14.8   c-8.2,0-14.8,6.7-14.8,14.8C10.2,26.7,16.2,33.1,23.7,33.7z M25,6.6c6.8,0,12.3,5.5,12.3,12.3c0,6.8-5.5,12.3-12.3,12.3   c-6.8,0-12.3-5.5-12.3-12.3C12.7,12.1,18.2,6.6,25,6.6z"/></g>
    </symbol>

    <symbol id="icecream" viewBox="0 0 50 50" width="50" height="50">
        <path d="M14,24c0.2,3.1,1.6,6.9,3.9,8.6l1,14.9c0,0.7,0.6,1.2,1.2,1.2H30c0.7,0,1.2-0.5,1.2-1.2l1-14.9c2.3-1.7,3.7-5.5,3.9-8.6  c1.4-0.8,2.3-2.3,2.3-4c0-1.8-1.1-3.4-2.7-4.2c0.5-0.7,0.8-1.6,0.8-2.5c0-2.4-1.8-4.3-4.1-4.6c0.1-0.3,0.1-0.7,0.1-1.1  c0-6.2-5.8-6.2-7.7-6.2c-0.7,0-1.2,0.6-1.2,1.2c0,2.8-1.8,3.7-4.6,4.8c-2.4,1-5.4,2.2-5.4,5.8c0,0.9,0.3,1.8,0.7,2.5  c-1.6,0.7-2.7,2.3-2.7,4.2C11.6,21.7,12.6,23.3,14,24z M28.8,46.1h-7.5l-0.8-12.6h9.2L28.8,46.1z M29.7,31h-9.3  c-1.6,0-3.4-3.2-3.8-6.4h16.9C33.1,27.8,31.3,31,29.7,31z M16.2,17.9h7.5c0.7,0,1.2-0.6,1.2-1.2s-0.6-1.2-1.2-1.2h-5.5  c-1.2,0-2.1-0.9-2.1-2.1c0-1.8,1.4-2.5,3.8-3.4c2.4-0.9,5.5-2.2,6.1-5.9c3.4,0.2,4.1,1.6,4.1,3.6c0,0.5-0.1,0.8-0.2,1.1h-2.4  c-0.7,0-1.2,0.6-1.2,1.2s0.6,1.2,1.2,1.2h3c0.1,0,0.2,0,0.3,0h1.1c1.2,0,2.1,0.9,2.1,2.1s-0.9,2.1-2.1,2.1c-0.7,0-1.2,0.6-1.2,1.2  s0.6,1.2,1.2,1.2h1.9c1.2,0,2.1,0.9,2.1,2.1c0,1.2-0.9,2.1-2.1,2.1H16.2c-1.2,0-2.1-0.9-2.1-2.1C14.1,18.8,15,17.9,16.2,17.9z"/>
    </symbol>

    <symbol id="martini" viewBox="0 0 50 50" width="50" height="50">
        <path d="M37.9,15c0.4-0.4,0.5-0.9,0.3-1.4c-0.2-0.5-0.6-0.8-1.2-0.8h-6.1c-0.2-0.7-0.6-1.2-1.1-1.7l2.1-4.8c0.3-0.6,0-1.4-0.6-1.6  c-0.6-0.3-1.4,0-1.6,0.6l-2.1,4.8c-0.1,0-0.2,0-0.4,0c-1.8,0-3.2,1.1-3.8,2.7H13c-0.5,0-1,0.3-1.2,0.8c-0.2,0.5-0.1,1,0.3,1.4  l11.6,11.6v16.2h-4.9c-0.7,0-1.2,0.6-1.2,1.2s0.6,1.2,1.2,1.2h12c0.7,0,1.2-0.6,1.2-1.2s-0.6-1.2-1.2-1.2h-4.6V26.6L37.9,15z   M27.2,12.6c0.8,0,1.5,0.7,1.5,1.5s-0.7,1.5-1.5,1.5c-0.8,0-1.5-0.7-1.5-1.5S26.4,12.6,27.2,12.6z M22.5,21.8L16,15.4h7.4  c0.2,0.7,0.6,1.2,1.1,1.7L22.5,21.8z M25,24.4l-0.6-0.6l2.5-5.6c0.1,0,0.2,0,0.4,0c1.8,0,3.2-1.1,3.8-2.7H34L25,24.4z"/>
    </symbol>

</svg>